<?xml version="1.0" encoding="utf-8"?>
<svg version="1.1" id="sloi_1" xmlns="http://www.w3.org/2000/svg" xmlns:xlink="http://www.w3.org/1999/xlink" x="0px" y="0px"
	 width="60px" height="60px" viewBox="0 0 260.98 260.32" enable-background="new 0 0 260.98 260.32" xml:space="preserve">
<circle display="none" fill="#3C3C3C" cx="126.962" cy="131.081" r="143.5"/>
<g>
	<path fill="none" d="M115.407,224.248"/>
</g>
<g>
	<path fill="#cacbce" d="M260.98,160.771c0,55.167-44.72,99.883-99.883,99.883H99.883C44.715,260.654,0,215.938,0,160.771V99.556
		C0,44.394,44.715-0.327,99.883-0.327h61.216c55.163,0,99.883,44.721,99.883,99.883L260.98,160.771L260.98,160.771z"/>
</g>
<g>
	<path fill="#bbbcc0" d="M260.452,160.438v-13.696l-80.768-79.993l-85.11,42.833l-17.417,21.5v6.61l-31,1.89l3,6.375l45.417,47.375
		l16.708,16.375l-2.875,5l-2.75,1.125l44.974,44.489h9.938c20.728,0,39.979-6.313,55.939-17.124
		c13.348-10.673,24.738-23.683,33.572-38.403C256.715,191.428,260.452,176.371,260.452,160.438z"/>
</g>
<path d="M217.574,139.574l0.233-1.986c-0.148-0.019-13.008-1.488-27.396-0.605c1.354-4.715,1.968-9.86,2.163-15.316
	c0.469-13.097-3.93-23.318-11.574-30.869c1.027-6.322,1.813-16.229-1.314-24.048c0,0-15.27,1.298-26.994,9.815
	c-6.912-1.55-14.375-2.315-22.116-2.315c-7.285,0-14.271,0.921-20.737,2.641c-11.778-8.808-27.43-10.141-27.43-10.141
	c-3.567,8.918-2.045,20.545-0.879,26.479c-7.357,8.161-11.274,18.581-10.121,30.521c0.459,4.75,1.351,9.193,2.786,13.281
	c-14.693-0.984-28.002,0.539-28.153,0.559l0.233,1.986c0.153-0.018,13.854-1.582,28.705-0.483c0.349,0.852,0.73,1.68,1.132,2.496
	c-5.399-0.44-15.474-0.612-27.683,2.271l0.46,1.947c12.893-3.045,23.545-2.57,28.354-2.093
	c6.244,10.868,17.895,18.274,37.938,20.768c-3.437,2.389-6.13,5.988-6.606,11.436c-0.037,0.417-0.068,0.866-0.097,1.326
	c-12.171-0.235-13.299,0.022-17.069-2.159c-3.167-1.833-6.387-4.972-8.333-6.833c-9.38-8.977-16.167-6.334-16.167-6.334
	c8.5,3.833,9.56,11.357,12.5,15.334c6.115,8.271,9.673,10.491,14,11.083c3.131,0.429,10.358,0.828,14.872,1.049
	c0.066,6.434,0.291,13.146,0.378,17.451c0.021,0.979,0.111,2.938,0.083,3.917c-0.041,1.484-0.167,2.166-3.083,5.083
	c0,0,13.583,1.916,13.167-10.417l0.009-23.583l2.241-2c0,0,0.125,22.208,0,29.583c-0.03,1.755,0.334,4.549-2.583,6.523
	c0,0,12.979,2.007,13.417-5.523c0.438-7.503,0-30.083,0-30.083l1.249-1.25l1.249,1.25c0,0-0.437,22.58,0,30.083
	c0.438,7.53,13.417,5.523,13.417,5.523c-2.917-1.976-2.553-4.77-2.583-6.523c-0.125-7.375,0-29.583,0-29.583l2.241,2l0.009,23.583
	c-0.417,12.333,13.167,10.417,13.167,10.417c-2.917-2.917-3.042-3.599-3.083-5.083c-0.027-0.979,0.063-2.938,0.083-3.917
	c0.158-7.729,0.758-23.217,0.083-30.917c-0.491-5.6-3.324-9.246-6.898-11.631c20.963-2.728,31.695-10.226,36.998-20.685
	c5.254-0.421,15.224-0.604,27.121,2.205l0.46-1.947c-11.438-2.699-21.005-2.721-26.606-2.351c0.345-0.813,0.664-1.637,0.954-2.479
	C204.268,138.053,217.425,139.557,217.574,139.574z M72.844,164.018c-0.312,0-0.563-0.252-0.563-0.563
	c0-0.312,0.252-0.563,0.563-0.563c0.311,0,0.563,0.252,0.563,0.563C73.407,163.766,73.155,164.018,72.844,164.018z M75.282,165.414
	c-0.322,0-0.583-0.262-0.583-0.583c0-0.322,0.261-0.583,0.583-0.583s0.583,0.261,0.583,0.583
	C75.865,165.153,75.604,165.414,75.282,165.414z M77.782,167.643c-0.38,0-0.688-0.308-0.688-0.688s0.308-0.688,0.688-0.688
	s0.688,0.309,0.688,0.688S78.162,167.643,77.782,167.643z M80.219,170.081c-0.414,0-0.75-0.336-0.75-0.75s0.336-0.75,0.75-0.75
	c0.413,0,0.75,0.336,0.75,0.75S80.633,170.081,80.219,170.081z M82.844,173.331c-0.588,0-1.063-0.477-1.063-1.063
	s0.476-1.063,1.063-1.063c0.587,0,1.063,0.476,1.063,1.063S83.431,173.331,82.844,173.331z M85.969,176.206
	c-0.621,0-1.125-0.504-1.125-1.125s0.504-1.125,1.125-1.125c0.62,0,1.125,0.504,1.125,1.125S86.59,176.206,85.969,176.206z
	 M90.094,179.268c-0.69,0-1.25-0.56-1.25-1.25c0-0.689,0.56-1.25,1.25-1.25c0.689,0,1.25,0.561,1.25,1.25
	C91.344,178.708,90.785,179.268,90.094,179.268z M95.157,180.518c-0.69,0-1.25-0.56-1.25-1.25c0-0.689,0.56-1.25,1.25-1.25
	s1.25,0.561,1.25,1.25C96.407,179.958,95.847,180.518,95.157,180.518z M100.532,180.831c-0.69,0-1.25-0.561-1.25-1.25
	c0-0.69,0.56-1.25,1.25-1.25s1.25,0.56,1.25,1.25C101.782,180.271,101.222,180.831,100.532,180.831z M105.969,180.831
	c-0.69,0-1.25-0.561-1.25-1.25c0-0.69,0.56-1.25,1.25-1.25c0.689,0,1.25,0.56,1.25,1.25
	C107.219,180.271,106.66,180.831,105.969,180.831z"/>
</svg>
