<?xml version="1.0" encoding="utf-8"?>
<!-- Generator: Adobe Illustrator 14.0.0, SVG Export Plug-In . SVG Version: 6.00 Build 43363)  -->
<!DOCTYPE svg PUBLIC "-//W3C//DTD SVG 1.1//EN" "http://www.w3.org/Graphics/SVG/1.1/DTD/svg11.dtd">
<svg version="1.1" id="Слой_1" xmlns="http://www.w3.org/2000/svg" xmlns:xlink="http://www.w3.org/1999/xlink" x="0px" y="0px" z="0px"
	 width="140px" height="148.58px" viewBox="0 0 595.28 631.792" enable-background="new 0 0 595.28 631.792"
	 xml:space="preserve">
<ellipse fill="none" stroke="#cacbce" stroke-width="10" cx="298.625" cy="314.75" rx="159.625" ry="282.917"/>
<g>
	<path fill="none" d="M51.667,324.23v-10.334H293V74.064C145.297,76.775,26.5,183.601,26.5,315
		c0,131.4,118.797,238.225,266.5,240.936V324.23H51.667z"/>
	<path fill="none" d="M303.334,555.949c144.762-2.118,262.018-104.241,267.442-231.719H303.334V555.949z"/>
	<path fill="#2A9EDA" d="M586,313.896H303.334V74.047c136.229,1.992,248.11,92.547,265.352,209.453h14.785
		C566.126,158.12,447.677,60.775,303.334,58.715V5H293v53.73C137.112,61.432,11.667,175.274,11.667,315.333
		c0,140.06,125.445,253.901,281.333,256.603V624h10.334v-52.053c153.03-2.185,276.938-111.471,282.13-247.717H586V313.896z
		 M26.5,315C26.5,183.601,145.297,76.775,293,74.064v239.832H51.667v10.334H293v231.706C145.297,553.225,26.5,446.4,26.5,315z
		 M303.334,555.949V324.23h267.442C565.352,451.708,448.096,553.831,303.334,555.949z"/>
</g>
<path fill="#FFFFFF" stroke="#000000" d="M303.282,319.238l2.94-3.044c1.337-1.385,1.298-3.592-0.087-4.928
	c-1.385-1.337-3.591-1.299-4.928,0.086l-2.771,2.869l-2.771-2.87c-1.338-1.385-3.544-1.423-4.928-0.086
	c-1.385,1.337-1.424,3.543-0.087,4.928l2.941,3.045l-2.941,3.045c-1.337,1.385-1.298,3.591,0.086,4.928
	c1.384,1.337,3.591,1.299,4.928-0.086l2.771-2.87l2.771,2.869c1.337,1.385,3.543,1.424,4.928,0.086
	c1.385-1.336,1.424-3.543,0.087-4.928L303.282,319.238z"/>
<g>
	<polygon fill="#2AA6DA" stroke="#000000" stroke-width="2" points="247.483,154.705 350.75,293.542 381.087,293.542 
		381.087,108.015 350.5,108.015 350.601,250.759 246.5,108.015 215.674,108.015 215.674,293.542 247.25,293.542 	"/>
	<polygon fill="#2AA6DA" stroke="#000000" stroke-width="2" points="345.621,345.715 298.902,477.963 252.849,345.715 
		217.03,345.715 281.855,531.875 315.449,531.875 381.395,345.715 	"/>
</g>
</svg>
