<?xml version="1.0" encoding="utf-8"?>
<svg version="1.1" id="sloi_1" xmlns="http://www.w3.org/2000/svg" xmlns:xlink="http://www.w3.org/1999/xlink" x="0px" y="0px"
	 width="60px" height="60px" viewBox="0 0 260.98 260.321" enable-background="new 0 0 260.98 260.321"
	 xml:space="preserve">
<circle display="none" fill="#3C3C3C" cx="126.962" cy="131.081" r="143.5"/>
<g>
	<path fill-rule="evenodd" clip-rule="evenodd" fill="none" d="M115.407,224.248"/>
</g>
<g>
	<path fill-rule="evenodd" clip-rule="evenodd" fill="#924CC4" d="M260.98,160.771c0,55.167-44.72,99.883-99.883,99.883H99.883
		C44.715,260.654,0,215.938,0,160.771V99.556C0,44.394,44.715-0.327,99.883-0.327h61.215c55.163,0,99.883,44.721,99.883,99.883
		V160.771z"/>
</g>
<g>
	<path fill="#333333" d="M517.119,102.438V88.741L436.351,8.748l-85.11,42.833l-17.417,21.5v6.611l-31,1.889l3,6.375l45.417,47.375
		l16.708,16.375l-2.875,5l-2.75,1.125l44.974,44.49h9.938c20.728,0,39.98-6.314,55.94-17.124
		c13.347-10.673,24.738-23.683,33.572-38.404C513.382,133.428,517.119,118.371,517.119,102.438z"/>
</g>
<path d="M528.241,297.074l0.233-1.986c-0.148-0.018-13.007-1.488-27.396-0.605c1.354-4.715,1.968-9.861,2.163-15.317
	c0.469-13.096-3.93-23.318-11.574-30.869c1.027-6.322,1.813-16.229-1.315-24.048c0,0-15.269,1.298-26.994,9.816
	c-6.912-1.55-14.375-2.316-22.116-2.316c-7.285,0-14.271,0.921-20.737,2.641c-11.779-8.808-27.43-10.141-27.43-10.141
	c-3.567,8.918-2.045,20.545-0.879,26.479c-7.357,8.161-11.274,18.581-10.121,30.521c0.459,4.75,1.351,9.194,2.786,13.281
	c-14.693-0.984-28.002,0.54-28.153,0.559l0.233,1.986c0.153-0.017,13.854-1.582,28.705-0.483c0.349,0.852,0.731,1.68,1.132,2.496
	c-5.399-0.44-15.474-0.612-27.683,2.271l0.46,1.947c12.893-3.045,23.545-2.57,28.355-2.093
	c6.244,10.868,17.894,18.275,37.937,20.768c-3.436,2.388-6.129,5.988-6.606,11.435c-0.037,0.417-0.068,0.866-0.097,1.326
	c-12.171-0.235-13.299,0.023-17.069-2.159c-3.167-1.833-6.387-4.971-8.333-6.833c-9.38-8.976-16.167-6.334-16.167-6.334
	c8.5,3.833,9.56,11.358,12.5,15.334c6.115,8.271,9.673,10.491,14,11.083c3.131,0.429,10.358,0.828,14.872,1.049
	c0.066,6.434,0.291,13.146,0.378,17.451c0.02,0.979,0.111,2.938,0.083,3.917c-0.041,1.485-0.167,2.166-3.083,5.083
	c0,0,13.583,1.916,13.167-10.417l0.009-23.583l2.241-2c0,0,0.125,22.208,0,29.583c-0.03,1.755,0.334,4.549-2.583,6.524
	c0,0,12.979,2.006,13.417-5.524c0.437-7.503,0-30.083,0-30.083l1.249-1.25l1.249,1.25c0,0-0.437,22.58,0,30.083
	c0.438,7.53,13.417,5.524,13.417,5.524c-2.917-1.976-2.553-4.77-2.583-6.524c-0.125-7.375,0-29.583,0-29.583l2.241,2l0.009,23.583
	c-0.417,12.333,13.167,10.417,13.167,10.417c-2.917-2.917-3.042-3.598-3.083-5.083c-0.027-0.979,0.063-2.938,0.083-3.917
	c0.158-7.728,0.758-23.217,0.083-30.917c-0.491-5.599-3.324-9.246-6.898-11.631c20.962-2.727,31.695-10.225,36.998-20.684
	c5.253-0.421,15.223-0.604,27.121,2.205l0.46-1.947c-11.438-2.7-21.005-2.721-26.607-2.351c0.345-0.812,0.664-1.637,0.954-2.479
	C514.935,295.553,528.092,297.057,528.241,297.074z M383.511,321.518c-0.311,0-0.563-0.252-0.563-0.563s0.252-0.563,0.563-0.563
	s0.563,0.252,0.563,0.563S383.822,321.518,383.511,321.518z M385.949,322.914c-0.322,0-0.583-0.261-0.583-0.583
	s0.261-0.583,0.583-0.583s0.583,0.261,0.583,0.583S386.271,322.914,385.949,322.914z M388.449,325.143
	c-0.38,0-0.688-0.308-0.688-0.688s0.308-0.688,0.688-0.688s0.688,0.308,0.688,0.688S388.829,325.143,388.449,325.143z
	 M390.886,327.581c-0.414,0-0.75-0.336-0.75-0.75s0.336-0.75,0.75-0.75s0.75,0.336,0.75,0.75S391.3,327.581,390.886,327.581z
	 M393.511,330.831c-0.587,0-1.063-0.476-1.063-1.063s0.476-1.063,1.063-1.063s1.063,0.476,1.063,1.063
	S394.098,330.831,393.511,330.831z M396.636,333.706c-0.621,0-1.125-0.504-1.125-1.125s0.504-1.125,1.125-1.125
	s1.125,0.504,1.125,1.125S397.257,333.706,396.636,333.706z M400.761,336.768c-0.69,0-1.25-0.56-1.25-1.25s0.56-1.25,1.25-1.25
	s1.25,0.56,1.25,1.25S401.452,336.768,400.761,336.768z M405.824,338.018c-0.69,0-1.25-0.56-1.25-1.25s0.56-1.25,1.25-1.25
	s1.25,0.56,1.25,1.25S406.514,338.018,405.824,338.018z M411.199,338.331c-0.69,0-1.25-0.56-1.25-1.25s0.56-1.25,1.25-1.25
	s1.25,0.56,1.25,1.25S411.889,338.331,411.199,338.331z M416.636,338.331c-0.69,0-1.25-0.56-1.25-1.25s0.56-1.25,1.25-1.25
	s1.25,0.56,1.25,1.25S417.327,338.331,416.636,338.331z"/>

<path fill-rule="evenodd" clip-rule="evenodd" fill="#753D9D" d="M47.644,111.998l-3.472-9.025c0,0-2.314-6.712,1.736-14.117
	c0,0,3.68-5.736,5.208-7.405c2.148-2.348,9.72-8.217,9.72-8.217l5.208-2.893c0,0,8.91-3.124,13.423,2.198
	c0,0,17.024,16.042,22.449,31.359c1.238,3.495,2.197,9.666-3.791,14.336c-0.158,0.124-0.321,0.244-0.491,0.359
	c-6.596,4.514-7.753,6.943-7.753,6.943s-3.472,4.282,1.157,13.308c0,0,13.191,32.979,43.625,40.27c0,0,5.207,2.546,9.72-2.662
	l6.249-7.059c0,0,7.637-7.868,19.44,0c0,0,18.87,10.499,26.383,19.788c2.457,3.036,5.323,8.215,0,15.621
	c0,0-6.827,11.919-17.125,17.705c0,0-7.268,5.637-21.871-1.158c-22.304-10.378-51.493-19.903-79.844-57.51
	C77.616,163.839,65,149.836,47.644,111.998z"/>
<path fill-rule="evenodd" clip-rule="evenodd" fill="#753D9D" d="M150.915,51.051c0,0-4.74,0.773-4.668,6.07
	c0,0-0.145,3.772,4.063,4.934c0,0,48.54-1.161,49.338,48.83c0,0,0.798,5.151,5.95,5.225c0,0,3.773,0.58,5.586-4.354
	c0,0,0.145-16.144-4.281-25.612C200.665,72.793,189.999,53.204,150.915,51.051z"/>
<path fill-rule="evenodd" clip-rule="evenodd" fill="#753D9D" d="M150.311,88.03c0,0-9.288-4.934-0.363-10.811
	c0,0,35.77-1.016,35.117,35.19c0,0-5.732,8.924-11.246-0.436C173.819,111.974,177.083,88.973,150.311,88.03z"/>
<path fill-rule="evenodd" clip-rule="evenodd" fill="#cacbce" d="M47.644,100.195l-3.472-9.025c0,0-2.314-6.712,1.736-14.117
	c0,0,3.68-5.736,5.208-7.406c2.148-2.348,9.72-8.216,9.72-8.216l5.208-2.893c0,0,8.91-3.124,13.423,2.198
	c0,0,17.024,16.042,22.449,31.359c1.238,3.494,2.197,9.666-3.791,14.336c-0.158,0.124-0.321,0.243-0.491,0.359
	c-6.596,4.513-7.753,6.943-7.753,6.943s-3.472,4.281,1.157,13.308c0,0,13.191,32.979,43.625,40.269c0,0,5.207,2.546,9.72-2.661
	l6.249-7.059c0,0,7.637-7.868,19.44,0c0,0,18.87,10.499,26.383,19.787c2.457,3.036,5.323,8.216,0,15.622
	c0,0-6.827,11.919-17.125,17.704c0,0-7.268,5.638-21.871-1.157c-22.304-10.379-51.493-19.903-79.844-57.511
	C77.616,152.036,65,138.034,47.644,100.195z"/>
<path fill-rule="evenodd" clip-rule="evenodd" fill="#cacbce" d="M154.979,45.827c0,0-4.741,0.773-4.668,6.07
	c0,0-0.146,3.773,4.063,4.934c0,0,48.541-1.16,49.338,48.831c0,0,0.798,5.151,5.95,5.224c0,0,3.773,0.581,5.587-4.354
	c0,0,0.145-16.143-4.281-25.612C204.728,67.569,194.062,47.979,154.979,45.827z"/>
<path fill-rule="evenodd" clip-rule="evenodd" fill="none" stroke="#FF0000" d="M-163.718,19.331"/>
<path fill-rule="evenodd" clip-rule="evenodd" fill="#cacbce" d="M154.374,82.806c0,0-9.287-4.934-0.363-10.812
	c0,0,35.771-1.016,35.117,35.19c0,0-5.732,8.925-11.246-0.436C177.882,106.75,181.147,83.75,154.374,82.806z"/>
</svg>
